name D:\PhD\Datasets\SharingData_IBEC_VALDUCE\RM2_Comp_0001.mot
datacolumns 46
datarows 12
range 5.01000000 5.12000000
endheader
                time	         pelvis_tilt	     pelvis_rotation	           pelvis_tx	           pelvis_ty	           pelvis_tz	       hip_flexion_r	     hip_adduction_r	      hip_rotation_r	        knee_angle_r	       ankle_angle_r	    subtalar_angle_r	         mtp_angle_r	       hip_flexion_l	     hip_adduction_l	      hip_rotation_l	        knee_angle_l	       ankle_angle_l	    subtalar_angle_l	         mtp_angle_l	    lumbar_extension	      lumbar_bending	     lumbar_rotation	          arm_flex_r	           arm_add_r	           arm_rot_r	        elbow_flex_r	           pro_sup_r	        wrist_flex_r	         wrist_dev_r	          arm_flex_l	           arm_add_l	           arm_rot_l	        elbow_flex_l	           pro_sup_l	        wrist_flex_l	         wrist_dev_l	          end_eff_tx	          end_eff_ty	          end_eff_tz	             goal_tx	             goal_ty	             goal_tz	            elbow_tx	            elbow_ty	            elbow_tz	
          5.01000000	          0.00000000	          0.00000000	        514.39101867	        426.61235827	        343.15102828	          0.00000000	          0.00000000	          0.00000000	          0.00000000	          0.00000000	          0.00000000	          0.00000000	          0.00000000	          0.00000000	          0.00000000	          0.00000000	          0.00000000	          0.00000000	          0.00000000	        -21.54226875	         -3.08902979	         12.61137772	         87.47290039	        -62.71356201	         41.37151337	         87.52524567	         70.32700348	          0.00000000	          0.00000000	          0.00000000	          0.00000000	          0.00000000	          0.00000000	          0.00000000	          0.00000000	          0.00000000	       1092.47128105	        666.11708827	        479.53615199	       1108.64474702	        673.34982294	        509.59822595	        784.39891179	        517.66859391	        719.71486947	
          5.02000000	          0.00000000	          0.00000000	        514.18974839	        426.73223005	        343.23556309	          0.00000000	          0.00000000	          0.00000000	          0.00000000	          0.00000000	          0.00000000	          0.00000000	          0.00000000	          0.00000000	          0.00000000	          0.00000000	          0.00000000	          0.00000000	          0.00000000	        -21.53330994	         -3.08250523	         12.57571983	         87.52061462	        -62.70631409	         41.42113495	         87.50187683	         70.30733490	          0.00000000	          0.00000000	          0.00000000	          0.00000000	          0.00000000	          0.00000000	          0.00000000	          0.00000000	          0.00000000	       1092.28647984	        666.15468988	        479.81341861	       1108.57157707	        673.29186053	        509.58239145	        784.07211878	        517.77487301	        719.87779080	
          5.03000000	          0.00000000	          0.00000000	        513.98647024	        426.81934681	        343.36155971	          0.00000000	          0.00000000	          0.00000000	          0.00000000	          0.00000000	          0.00000000	          0.00000000	          0.00000000	          0.00000000	          0.00000000	          0.00000000	          0.00000000	          0.00000000	          0.00000000	        -21.55579567	         -3.10250449	         12.55991268	         87.44757843	        -62.69619751	         41.33912277	         87.49396515	         70.31937408	          0.00000000	          0.00000000	          0.00000000	          0.00000000	          0.00000000	          0.00000000	          0.00000000	          0.00000000	          0.00000000	       1092.08267206	        666.11854972	        480.11862541	       1108.56886548	        673.20778329	        509.55366894	        783.68526774	        517.90930599	        720.09738231	
          5.04000000	          0.00000000	          0.00000000	        513.74836467	        426.91073332	        343.45099374	          0.00000000	          0.00000000	          0.00000000	          0.00000000	          0.00000000	          0.00000000	          0.00000000	          0.00000000	          0.00000000	          0.00000000	          0.00000000	          0.00000000	          0.00000000	          0.00000000	        -21.50060463	         -3.05798841	         12.53610706	         87.40269470	        -62.68279266	         41.38481140	         87.49033356	         70.34401703	          0.00000000	          0.00000000	          0.00000000	          0.00000000	          0.00000000	          0.00000000	          0.00000000	          0.00000000	          0.00000000	       1091.76406665	        666.05131102	        480.37617635	       1108.80318432	        673.33919497	        509.63339296	        783.24379527	        518.10871804	        720.34790281	
          5.05000000	          0.00000000	          0.00000000	        513.52501320	        427.02776948	        343.50066170	          0.00000000	          0.00000000	          0.00000000	          0.00000000	          0.00000000	          0.00000000	          0.00000000	          0.00000000	          0.00000000	          0.00000000	          0.00000000	          0.00000000	          0.00000000	          0.00000000	        -21.54760933	         -3.02626920	         12.46306324	         87.52295685	        -62.63413239	         41.46938324	         87.48810577	         70.32760620	          0.00000000	          0.00000000	          0.00000000	          0.00000000	          0.00000000	          0.00000000	          0.00000000	          0.00000000	          0.00000000	       1091.35757785	        666.03635931	        480.59626250	       1109.04569840	        673.28921793	        509.64767775	        782.72926388	        518.27656288	        720.56630718	
          5.06000000	          0.00000000	          0.00000000	        513.26559469	        427.12442622	        343.55945526	          0.00000000	          0.00000000	          0.00000000	          0.00000000	          0.00000000	          0.00000000	          0.00000000	          0.00000000	          0.00000000	          0.00000000	          0.00000000	          0.00000000	          0.00000000	          0.00000000	        -21.48034859	         -3.00842381	         12.43015003	         87.57190704	        -62.57014084	         41.61083603	         87.43923187	         70.27606201	          0.00000000	          0.00000000	          0.00000000	          0.00000000	          0.00000000	          0.00000000	          0.00000000	          0.00000000	          0.00000000	       1090.90598499	        665.99171375	        480.80464286	       1109.34779418	        673.32343718	        509.67428823	        782.22915857	        518.34672940	        720.72131029	
          5.07000000	          0.00000000	          0.00000000	        513.02761444	        427.26654217	        343.62405989	          0.00000000	          0.00000000	          0.00000000	          0.00000000	          0.00000000	          0.00000000	          0.00000000	          0.00000000	          0.00000000	          0.00000000	          0.00000000	          0.00000000	          0.00000000	          0.00000000	        -21.43027687	         -2.98444986	         12.37948132	         87.53448486	        -62.56285858	         41.63111496	         87.45633698	         70.21865082	          0.00000000	          0.00000000	          0.00000000	          0.00000000	          0.00000000	          0.00000000	          0.00000000	          0.00000000	          0.00000000	       1090.50207540	        665.91663820	        481.10283091	       1109.63167047	        673.30337834	        509.70816271	        781.61443268	        518.50277608	        720.96283387	
          5.08000000	          0.00000000	          0.00000000	        512.79097422	        427.43511707	        343.69762901	          0.00000000	          0.00000000	          0.00000000	          0.00000000	          0.00000000	          0.00000000	          0.00000000	          0.00000000	          0.00000000	          0.00000000	          0.00000000	          0.00000000	          0.00000000	          0.00000000	        -21.38308907	         -2.96137857	         12.34855556	         87.33486938	        -62.55775833	         41.49541092	         87.49930573	         70.12129974	          0.00000000	          0.00000000	          0.00000000	          0.00000000	          0.00000000	          0.00000000	          0.00000000	          0.00000000	          0.00000000	       1089.99129975	        665.78391858	        481.38844627	       1109.90257580	        673.28812096	        509.75915695	        780.99716811	        518.63202902	        721.29156343	
          5.09000000	          0.00000000	          0.00000000	        512.57628312	        427.60112012	        343.74093434	          0.00000000	          0.00000000	          0.00000000	          0.00000000	          0.00000000	          0.00000000	          0.00000000	          0.00000000	          0.00000000	          0.00000000	          0.00000000	          0.00000000	          0.00000000	          0.00000000	        -21.37753868	         -2.92768002	         12.29524136	         87.45655823	        -62.53045273	         41.62476349	         87.48096466	         70.08746338	          0.00000000	          0.00000000	          0.00000000	          0.00000000	          0.00000000	          0.00000000	          0.00000000	          0.00000000	          0.00000000	       1089.35483926	        665.58911015	        481.65806297	       1109.87167999	        673.25846213	        509.77472290	        780.29258311	        518.66397057	        721.51054259	
          5.10000000	          0.00000000	          0.00000000	        512.29206410	        427.77517464	        343.79908827	          0.00000000	          0.00000000	          0.00000000	          0.00000000	          0.00000000	          0.00000000	          0.00000000	          0.00000000	          0.00000000	          0.00000000	          0.00000000	          0.00000000	          0.00000000	          0.00000000	        -21.40213585	         -2.90207958	         12.23089600	         87.54636383	        -62.48656082	         41.68054962	         87.48281860	         70.08194733	          0.00000000	          0.00000000	          0.00000000	          0.00000000	          0.00000000	          0.00000000	          0.00000000	          0.00000000	          0.00000000	       1088.67030034	        665.36425486	        481.95657467	       1109.74639504	        673.27350872	        509.72122459	        779.55958855	        518.69713068	        721.82678169	
          5.11000000	          0.00000000	          0.00000000	        512.00102815	        427.92937911	        343.84252782	          0.00000000	          0.00000000	          0.00000000	          0.00000000	          0.00000000	          0.00000000	          0.00000000	          0.00000000	          0.00000000	          0.00000000	          0.00000000	          0.00000000	          0.00000000	          0.00000000	        -21.38719749	         -2.79675460	         12.19163895	         87.62403107	        -62.47643661	         41.81447601	         87.50962067	         70.03884888	          0.00000000	          0.00000000	          0.00000000	          0.00000000	          0.00000000	          0.00000000	          0.00000000	          0.00000000	          0.00000000	       1087.94095180	        665.33358851	        482.32546184	       1109.58975377	        673.27315745	        509.70013206	        778.71944956	        518.68015691	        722.18055250	
          5.12000000	          0.00000000	          0.00000000	        511.67052607	        428.11526193	        343.90727261	          0.00000000	          0.00000000	          0.00000000	          0.00000000	          0.00000000	          0.00000000	          0.00000000	          0.00000000	          0.00000000	          0.00000000	          0.00000000	          0.00000000	          0.00000000	          0.00000000	        -21.43036842	         -2.73177719	         12.11791134	         87.74040985	        -62.41675568	         41.87468338	         87.51771545	         70.02063751	          0.00000000	          0.00000000	          0.00000000	          0.00000000	          0.00000000	          0.00000000	          0.00000000	          0.00000000	          0.00000000	       1087.18653657	        665.21756616	        482.72241394	       1109.44312862	        673.30065911	        509.69037448	        777.82953266	        518.66295223	        722.56331572	
